<?xml version="1.0" encoding="UTF-8"?>
<!DOCTYPE svg PUBLIC "-//W3C//DTD SVG 1.1//EN" "http://www.w3.org/Graphics/SVG/1.1/DTD/svg11.dtd">
<!-- Creator: CorelDRAW X7 -->
<svg xmlns="http://www.w3.org/2000/svg" xml:space="preserve" width="103.568mm" height="103.568mm" version="1.1" style="shape-rendering:geometricPrecision; text-rendering:geometricPrecision; image-rendering:optimizeQuality; fill-rule:evenodd; clip-rule:evenodd"
viewBox="0 0 3951 3951"
 xmlns:xlink="http://www.w3.org/1999/xlink">
 <defs>
  <style type="text/css">
   <![CDATA[
    .fil0 {fill:#5E635C}
   ]]>
  </style>
 </defs>
 <g id="Layer_x0020_1">
  <metadata id="CorelCorpID_0Corel-Layer"/>
  <path class="fil0" d="M1976 0c1091,0 1975,885 1975,1976 0,1091 -884,1975 -1975,1975 -1091,0 -1976,-884 -1976,-1975 0,-1091 885,-1976 1976,-1976zm-1729 1599l166 0 0 604 376 0 0 150 -542 0 0 -754zm1035 614c33,0 63,-7 91,-19 28,-12 52,-29 72,-50 20,-22 35,-47 46,-75 11,-29 17,-59 17,-91l0 -2c0,-33 -6,-63 -17,-92 -11,-29 -27,-54 -47,-75 -21,-22 -45,-39 -73,-51 -28,-13 -58,-19 -91,-19 -34,0 -65,6 -92,18 -28,12 -52,29 -72,51 -19,21 -35,46 -46,75 -11,28 -17,58 -17,91l0 2c0,32 6,62 17,91 11,29 27,54 48,76 20,21 44,38 72,51 27,12 58,19 92,19zm-2 152c-59,0 -112,-10 -161,-30 -49,-21 -91,-48 -126,-83 -36,-35 -64,-76 -83,-123 -20,-47 -30,-97 -30,-151l0 -2c0,-54 10,-105 30,-152 20,-47 48,-88 84,-123 35,-36 78,-64 127,-84 49,-21 103,-31 161,-31 58,0 111,10 160,31 49,20 91,48 127,83 35,34 63,75 83,122 19,47 29,98 29,152l0 2c0,54 -10,104 -30,151 -20,47 -48,88 -83,124 -36,35 -78,63 -127,84 -50,20 -103,30 -161,30zm912 0c-59,0 -113,-9 -161,-29 -49,-19 -90,-46 -125,-80 -35,-35 -62,-76 -82,-123 -19,-47 -29,-99 -29,-155l0 -2c0,-54 10,-105 30,-152 20,-47 47,-88 82,-123 35,-36 77,-64 125,-84 48,-21 101,-31 158,-31 34,0 65,2 93,7 27,5 53,11 77,20 23,8 45,19 66,32 21,13 41,28 61,44l-105 126c-14,-12 -29,-23 -43,-32 -14,-9 -29,-17 -45,-24 -15,-6 -32,-11 -50,-15 -18,-3 -37,-5 -59,-5 -30,0 -58,6 -84,19 -27,12 -50,29 -69,50 -20,22 -35,46 -47,75 -11,28 -16,59 -16,91l0 2c0,35 5,67 16,96 12,29 27,54 48,76 20,21 44,38 72,50 28,12 58,18 92,18 62,0 114,-15 156,-46l0 -108 -167 0 0 -143 328 0 0 327c-39,33 -85,61 -139,84 -53,24 -115,35 -183,35zm488 -766l166 0 0 754 -166 0 0 -754zm355 0l153 0 353 464 0 -464 163 0 0 754 -141 0 -365 -480 0 480 -163 0 0 -754z"/>
 </g>
</svg>
