<?xml version="1.0" encoding="UTF-8"?>
<!DOCTYPE svg PUBLIC "-//W3C//DTD SVG 1.1//EN" "http://www.w3.org/Graphics/SVG/1.1/DTD/svg11.dtd">
<!-- Creator: CorelDRAW X7 -->
<svg xmlns="http://www.w3.org/2000/svg" xml:space="preserve" width="123.832mm" height="123.832mm" version="1.1" style="shape-rendering:geometricPrecision; text-rendering:geometricPrecision; image-rendering:optimizeQuality; fill-rule:evenodd; clip-rule:evenodd"
viewBox="0 0 11495 11495"
 xmlns:xlink="http://www.w3.org/1999/xlink">
 <defs>
  <style type="text/css">
   <![CDATA[
    .fil0 {fill:#5B5A50}
    .fil1 {fill:#B0CB1F}
    .fil2 {fill:#B0CB1F}
   ]]>
  </style>
 </defs>
 <g id="Layer_x0020_1">
  <metadata id="CorelCorpID_0Corel-Layer"/>
  <g id="_1733790134080">
   <path class="fil0" d="M5747 0c3175,0 5748,2573 5748,5747 0,3175 -2573,5748 -5748,5748 -3174,0 -5747,-2573 -5747,-5748 0,-3174 2573,-5747 5747,-5747zm-5257 4601l504 0 0 1837 1143 0 0 456 -1647 0 0 -2293zm3147 1867c100,0 193,-19 278,-56 85,-37 158,-88 218,-154 60,-65 107,-141 141,-227 34,-87 51,-179 51,-277l0 -7c0,-98 -17,-191 -51,-278 -34,-87 -82,-164 -144,-229 -62,-66 -136,-117 -221,-156 -85,-38 -178,-57 -279,-57 -102,0 -196,19 -280,56 -84,37 -156,88 -216,154 -60,65 -107,141 -141,227 -33,86 -50,179 -50,277l0 6c0,99 17,191 50,279 34,87 82,164 145,229 62,66 135,117 219,156 84,38 177,57 280,57zm-7 465c-176,0 -339,-31 -488,-93 -148,-63 -276,-147 -384,-253 -108,-105 -192,-230 -253,-373 -60,-143 -90,-296 -90,-460l0 -7c0,-163 31,-317 92,-460 61,-143 146,-268 254,-376 108,-108 237,-193 386,-256 150,-62 313,-93 490,-93 177,0 339,31 488,93 148,63 277,147 385,252 108,106 192,231 252,374 60,143 90,296 90,460l0 6c0,164 -31,318 -92,461 -61,143 -146,268 -254,376 -108,108 -237,193 -386,256 -150,62 -313,93 -490,93zm2774 0c-179,0 -342,-30 -490,-89 -147,-58 -274,-140 -379,-245 -106,-105 -189,-229 -248,-373 -59,-145 -88,-302 -88,-472l0 -7c0,-163 30,-317 90,-460 60,-143 144,-268 251,-376 106,-108 233,-193 379,-256 147,-62 307,-93 482,-93 102,0 196,7 280,21 84,14 162,35 234,61 72,26 140,59 203,98 63,39 124,84 183,134l-317 384c-44,-38 -88,-70 -131,-99 -44,-28 -89,-52 -136,-72 -47,-19 -98,-35 -153,-46 -54,-11 -114,-16 -180,-16 -91,0 -177,19 -257,57 -79,39 -149,90 -209,155 -60,64 -107,140 -141,226 -34,87 -51,179 -51,278l0 6c0,105 17,202 51,290 34,89 82,166 144,232 62,65 135,117 219,153 84,36 178,54 280,54 188,0 346,-47 475,-139l0 -330 -507 0 0 -435 995 0 0 995c-118,101 -258,187 -421,257 -162,71 -348,107 -558,107zm1487 -2332l504 0 0 2293 -504 0 0 -2293zm1077 0l465 0 1074 1412 0 -1412 498 0 0 2293 -429 0 -1110 -1458 0 1458 -498 0 0 -2293z"/>
   <polygon class="fil1" points="2137,6438 994,6438 994,4601 490,4601 490,6894 2137,6894 "/>
   <path class="fil2" d="M2505 6214c61,143 145,268 253,373 108,106 236,190 384,253 149,62 312,93 488,93 177,0 340,-31 490,-93 149,-63 278,-148 386,-256 108,-108 193,-233 254,-376 61,-143 92,-297 92,-461l0 -6c0,-164 -30,-317 -90,-460 -60,-143 -144,-268 -252,-374 -108,-105 -237,-189 -385,-252 -149,-62 -311,-93 -488,-93 -177,0 -340,31 -490,93 -149,63 -278,148 -386,256 -108,108 -193,233 -254,376 -61,143 -92,297 -92,460l0 7c0,164 30,317 90,460zm1410 198c-85,37 -178,56 -278,56 -103,0 -196,-19 -280,-57 -84,-39 -157,-90 -219,-156 -63,-65 -111,-142 -145,-229 -33,-88 -50,-180 -50,-279l0 -6c0,-98 17,-191 50,-277 34,-86 81,-162 141,-227 60,-66 132,-117 216,-154 84,-37 178,-56 280,-56 101,0 194,19 279,57 85,39 159,90 221,156 62,65 110,142 144,229 34,87 51,180 51,278l0 7c0,98 -17,190 -51,277 -34,86 -81,162 -141,227 -60,66 -133,117 -218,154z"/>
   <path class="fil2" d="M5287 6226c59,144 142,268 248,373 105,105 232,187 379,245 148,59 311,89 490,89 210,0 396,-36 558,-107 163,-70 303,-156 421,-257l0 -995 -995 0 0 435 507 0 0 330c-129,92 -287,139 -475,139 -102,0 -196,-18 -280,-54 -84,-36 -157,-88 -219,-153 -62,-66 -110,-143 -144,-232 -34,-88 -51,-185 -51,-290l0 -6c0,-99 17,-191 51,-278 34,-86 81,-162 141,-226 60,-65 130,-116 209,-155 80,-38 166,-57 257,-57 66,0 126,5 180,16 55,11 106,27 153,46 47,20 92,44 136,72 43,29 87,61 131,99l317 -384c-59,-50 -120,-95 -183,-134 -63,-39 -131,-72 -203,-98 -72,-26 -150,-47 -234,-61 -84,-14 -178,-21 -280,-21 -175,0 -335,31 -482,93 -146,63 -273,148 -379,256 -107,108 -191,233 -251,376 -60,143 -90,297 -90,460l0 7c0,170 29,327 88,472z"/>
   <polygon class="fil2" points="7891,4601 7891,6894 8395,6894 8395,4601 "/>
   <polygon class="fil2" points="8968,4601 8968,6894 9466,6894 9466,5436 10576,6894 11005,6894 11005,4601 10507,4601 10507,6013 9433,4601 "/>
  </g>
 </g>
</svg>
