<?xml version="1.0" encoding="UTF-8"?>
<!DOCTYPE svg PUBLIC "-//W3C//DTD SVG 1.1//EN" "http://www.w3.org/Graphics/SVG/1.1/DTD/svg11.dtd">
<!-- Creator: CorelDRAW X7 -->
<svg xmlns="http://www.w3.org/2000/svg" xml:space="preserve" width="103.568mm" height="103.568mm" version="1.1" style="shape-rendering:geometricPrecision; text-rendering:geometricPrecision; image-rendering:optimizeQuality; fill-rule:evenodd; clip-rule:evenodd"
viewBox="0 0 16820 16820"
 xmlns:xlink="http://www.w3.org/1999/xlink">
 <defs>
  <style type="text/css">
   <![CDATA[
    .fil0 {fill:#5E635C}
   ]]>
  </style>
 </defs>
 <g id="Layer_x0020_1">
  <metadata id="CorelCorpID_0Corel-Layer"/>
  <path class="fil0" d="M8410 0c4645,0 8410,3765 8410,8410 0,4645 -3765,8410 -8410,8410 -4645,0 -8410,-3765 -8410,-8410 0,-4645 3765,-8410 8410,-8410zm-6713 10060c-245,0 -485,-42 -720,-126 -235,-84 -449,-213 -642,-387l417 -500c147,119 298,214 452,284 154,71 323,106 506,106 147,0 261,-27 342,-81 81,-53 121,-127 121,-222l0 -9c0,-46 -8,-86 -25,-121 -17,-36 -49,-68 -96,-99 -48,-31 -114,-61 -198,-92 -84,-30 -194,-62 -329,-96 -162,-40 -309,-84 -441,-133 -131,-49 -244,-109 -335,-181 -92,-72 -164,-161 -214,-268 -51,-107 -76,-240 -76,-399l0 -9c0,-147 28,-279 82,-396 55,-118 131,-220 230,-305 98,-86 217,-151 353,-197 137,-46 288,-69 453,-69 236,0 452,35 649,105 197,71 378,172 543,303l-367 532c-143,-98 -284,-175 -421,-232 -138,-56 -275,-85 -413,-85 -137,0 -240,27 -309,81 -69,53 -103,119 -103,199l0 9c0,52 10,97 29,135 20,38 56,73 108,103 53,31 124,60 214,87 91,28 205,60 342,97 163,43 308,91 435,144 127,54 235,118 322,193 87,75 153,162 197,263 45,101 67,222 67,362l0 9c0,159 -29,301 -86,424 -58,124 -139,228 -242,312 -103,84 -227,148 -370,193 -142,44 -301,66 -475,66zm1468 -3254l705 0 0 3208 -705 0 0 -3208zm2701 3263c-251,0 -479,-41 -686,-124 -206,-82 -383,-197 -531,-343 -149,-147 -264,-321 -346,-523 -83,-201 -124,-421 -124,-660l0 -9c0,-229 42,-444 126,-644 84,-200 201,-376 351,-527 149,-151 326,-270 531,-358 205,-87 430,-130 674,-130 144,0 274,10 392,30 118,19 227,48 328,84 100,37 195,83 284,138 88,55 174,118 256,188l-444 536c-61,-52 -122,-98 -184,-137 -61,-40 -124,-74 -190,-101 -65,-28 -136,-49 -213,-64 -76,-16 -160,-23 -252,-23 -128,0 -248,26 -360,80 -111,53 -209,126 -293,216 -84,90 -150,196 -197,317 -48,121 -71,251 -71,388l0 9c0,147 23,283 71,407 47,124 114,232 202,324 87,91 189,163 307,213 117,51 248,76 391,76 263,0 485,-65 665,-194l0 -461 -710 0 0 -610 1393 0 0 1393c-165,141 -361,261 -589,360 -228,100 -488,149 -781,149zm1697 -3263l651 0 1503 1975 0 -1975 697 0 0 3208 -601 0 -1554 -2039 0 2039 -696 0 0 -3208zm4607 3259c-430,0 -770,-120 -1017,-358 -248,-238 -371,-594 -371,-1068l0 -1833 706 0 0 1815c0,263 61,460 183,593 122,133 292,200 509,200 217,0 386,-64 508,-193 123,-128 184,-321 184,-577l0 -1838 706 0 0 1810c0,245 -33,457 -99,637 -66,181 -160,331 -282,452 -122,121 -270,211 -444,270 -175,60 -369,90 -583,90zm3041 -1641c177,0 314,-47 412,-140 98,-93 147,-209 147,-346l0 -9c0,-159 -51,-280 -154,-362 -102,-83 -242,-124 -419,-124l-546 0 0 981 560 0zm-1265 -1618l1310 0c193,0 365,27 516,80 151,53 280,129 385,227 105,98 186,215 243,351 57,136 85,286 85,451l0 9c0,187 -34,350 -101,491 -67,140 -160,258 -277,353 -118,94 -255,165 -413,213 -157,47 -326,71 -506,71l-537 0 0 962 -705 0 0 -3208z"/>
 </g>
</svg>
