<?xml version="1.0" encoding="UTF-8"?>
<!DOCTYPE svg PUBLIC "-//W3C//DTD SVG 1.1//EN" "http://www.w3.org/Graphics/SVG/1.1/DTD/svg11.dtd">
<!-- Creator: CorelDRAW X7 -->
<svg xmlns="http://www.w3.org/2000/svg" xml:space="preserve" width="123.832mm" height="123.832mm" version="1.1" style="shape-rendering:geometricPrecision; text-rendering:geometricPrecision; image-rendering:optimizeQuality; fill-rule:evenodd; clip-rule:evenodd"
viewBox="0 0 5311 5311"
 xmlns:xlink="http://www.w3.org/1999/xlink">
 <defs>
  <style type="text/css">
   <![CDATA[
    .fil0 {fill:#5B5A50}
    .fil1 {fill:#B0CB1F}
   ]]>
  </style>
 </defs>
 <g id="Layer_x0020_1">
  <metadata id="CorelCorpID_0Corel-Layer"/>
  <g id="_1733788703392">
   <path class="fil0" d="M2655 0c1467,0 2656,1189 2656,2655 0,1467 -1189,2656 -2656,2656 -1466,0 -2655,-1189 -2655,-2656 0,-1466 1189,-2655 2655,-2655zm-2134 3173c-76,0 -152,-14 -225,-40 -74,-26 -141,-67 -202,-121l131 -157c46,37 93,67 142,89 48,22 101,33 159,33 46,0 81,-8 107,-25 25,-17 38,-40 38,-70l0 -3c0,-14 -3,-27 -8,-38 -5,-11 -16,-21 -30,-31 -15,-9 -36,-19 -62,-28 -27,-10 -61,-20 -103,-30 -51,-13 -97,-27 -139,-42 -41,-15 -76,-34 -105,-57 -29,-22 -51,-50 -67,-84 -16,-34 -24,-75 -24,-125l0 -3c0,-46 9,-87 26,-124 17,-37 41,-69 72,-96 31,-27 68,-47 111,-62 43,-14 90,-21 142,-21 74,0 141,11 203,33 62,22 119,54 171,95l-115 166c-45,-30 -90,-54 -133,-72 -43,-18 -86,-27 -129,-27 -43,0 -75,9 -97,25 -22,17 -32,38 -32,63l0 3c0,16 3,30 9,42 6,12 17,23 34,33 16,9 39,18 67,27 28,9 64,19 107,30 51,13 97,29 136,45 40,17 74,37 101,61 28,23 48,51 62,82 14,32 21,70 21,114l0 3c0,50 -9,94 -27,133 -18,39 -43,71 -76,97 -32,27 -71,47 -116,61 -44,14 -94,21 -149,21zm472 -1021l221 0 0 1006 -221 0 0 -1006zm859 1024c-79,0 -151,-13 -215,-39 -65,-26 -121,-62 -167,-108 -46,-46 -83,-101 -108,-164 -26,-63 -39,-132 -39,-207l0 -3c0,-72 13,-139 39,-202 27,-62 63,-118 110,-165 47,-47 103,-85 167,-112 64,-27 135,-41 211,-41 45,0 86,3 123,9 37,7 71,15 103,27 31,11 61,26 89,43 28,17 55,37 80,59l-139 168c-19,-16 -38,-31 -57,-43 -20,-12 -40,-23 -60,-32 -21,-8 -43,-15 -67,-20 -24,-5 -50,-7 -79,-7 -40,0 -78,8 -113,25 -35,17 -65,40 -92,68 -26,28 -47,61 -62,99 -14,38 -22,79 -22,122l0 3c0,46 8,89 22,127 15,39 36,73 64,102 27,29 59,51 96,67 37,16 78,24 123,24 82,0 152,-21 208,-61l0 -145 -223 0 0 -191 437 0 0 437c-51,44 -113,82 -184,113 -72,31 -153,47 -245,47zm543 -1024l204 0 472 620 0 -620 218 0 0 1006 -188 0 -487 -639 0 639 -219 0 0 -1006zm1457 1022c-135,0 -242,-37 -319,-112 -78,-75 -117,-186 -117,-335l0 -575 222 0 0 569c0,83 19,145 57,186 38,42 92,63 160,63 68,0 121,-20 159,-60 38,-41 58,-101 58,-181l0 -577 221 0 0 568c0,77 -10,143 -31,200 -21,56 -50,103 -88,141 -39,38 -85,66 -140,85 -54,19 -115,28 -182,28zm965 -514c55,0 98,-15 129,-44 31,-29 46,-66 46,-109l0 -3c0,-49 -16,-87 -48,-113 -32,-26 -76,-39 -132,-39l-171 0 0 308 176 0zm-397 -508l411 0c60,0 114,9 162,25 47,17 87,41 120,72 33,30 59,67 77,109 17,43 26,90 26,142l0 3c0,58 -10,110 -31,154 -22,44 -51,81 -87,110 -37,30 -80,52 -130,67 -49,15 -102,22 -159,22l-168 0 0 302 -221 0 0 -1006z"/>
   <path class="fil1" d="M806 2662c-27,-24 -61,-44 -101,-61 -39,-16 -85,-32 -136,-45 -43,-11 -79,-21 -107,-30 -28,-9 -51,-18 -67,-27 -17,-10 -28,-21 -34,-33 -6,-12 -9,-26 -9,-42l0 -3c0,-25 10,-46 32,-63 22,-16 54,-25 97,-25 43,0 86,9 129,27 43,18 88,42 133,72l115 -166c-52,-41 -109,-73 -171,-95 -62,-22 -129,-33 -203,-33 -52,0 -99,7 -142,21 -43,15 -80,35 -111,62 -31,27 -55,59 -72,96 -17,37 -26,78 -26,124l0 3c0,50 8,91 24,125 16,34 38,62 67,84 29,23 64,42 105,57 42,15 88,29 139,42 42,10 76,20 103,30 26,9 47,19 62,28 14,10 25,20 30,31 5,11 8,24 8,38l0 3c0,30 -13,53 -38,70 -26,17 -61,25 -107,25 -58,0 -111,-11 -159,-33 -49,-22 -96,-52 -142,-89l-131 157c61,54 128,95 202,121 73,26 149,40 225,40 55,0 105,-7 149,-21 45,-14 84,-34 116,-61 33,-26 58,-58 76,-97 18,-39 27,-83 27,-133l0 -3c0,-44 -7,-82 -21,-114 -14,-31 -34,-59 -62,-82z"/>
   <polygon class="fil1" points="993,2152 993,3158 1214,3158 1214,2152 "/>
   <path class="fil1" d="M1323 2658c0,75 13,144 39,207 25,63 62,118 108,164 46,46 102,82 167,108 64,26 136,39 215,39 92,0 173,-16 245,-47 71,-31 133,-69 184,-113l0 -437 -437 0 0 191 223 0 0 145c-56,40 -126,61 -208,61 -45,0 -86,-8 -123,-24 -37,-16 -69,-38 -96,-67 -28,-29 -49,-63 -64,-102 -14,-38 -22,-81 -22,-127l0 -3c0,-43 8,-84 22,-122 15,-38 36,-71 62,-99 27,-28 57,-51 92,-68 35,-17 73,-25 113,-25 29,0 55,2 79,7 24,5 46,12 67,20 20,9 40,20 60,32 19,12 38,27 57,43l139 -168c-25,-22 -52,-42 -80,-59 -28,-17 -58,-32 -89,-43 -32,-12 -66,-20 -103,-27 -37,-6 -78,-9 -123,-9 -76,0 -147,14 -211,41 -64,27 -120,65 -167,112 -47,47 -83,103 -110,165 -26,63 -39,130 -39,202l0 3z"/>
   <polygon class="fil1" points="2614,2519 3101,3158 3289,3158 3289,2152 3071,2152 3071,2772 2599,2152 2395,2152 2395,3158 2614,3158 "/>
   <path class="fil1" d="M3416 2152l0 575c0,149 39,260 117,335 77,75 184,112 319,112 67,0 128,-9 182,-28 55,-19 101,-47 140,-85 38,-38 67,-85 88,-141 21,-57 31,-123 31,-200l0 -568 -221 0 0 577c0,80 -20,140 -58,181 -38,40 -91,60 -159,60 -68,0 -122,-21 -160,-63 -38,-41 -57,-103 -57,-186l0 -569 -222 0z"/>
   <path class="fil1" d="M4420 2152l0 1006 221 0 0 -302 168 0c57,0 110,-7 159,-22 50,-15 93,-37 130,-67 36,-29 65,-66 87,-110 21,-44 31,-96 31,-154l0 -3c0,-52 -9,-99 -26,-142 -18,-42 -44,-79 -77,-109 -33,-31 -73,-55 -120,-72 -48,-16 -102,-25 -162,-25l-411 0zm526 464c-31,29 -74,44 -129,44l-176 0 0 -308 171 0c56,0 100,13 132,39 32,26 48,64 48,113l0 3c0,43 -15,80 -46,109z"/>
  </g>
 </g>
</svg>
